<svg width="138" height="146" viewBox="0 0 138 146" xmlns="http://www.w3.org/2000/svg"><g transform="translate(.457)" fill="none" fill-rule="evenodd"><path d="M14.136 54.056c-2.37 8.483-2.526 16.895-.47 25.235 3.647 14.808 13.272 26.501 24.305 35.352 8.14 6.54 16.925 12.369 26.65 16.37.028.01.585.278 1.67.804 2.794 1.35 4.422.157 7.706-1.365a110.395 110.395 0 0 0 17.772-10.328c2.424-1.735 5.16-4.11 7.798-6.107 2.303-1.749 4.168-3.365 5.595-4.848 7.058-7.329 13.001-15.07 16.463-24.375 3.263-8.772 3.292-18.888 2.005-28.03-.19-1.37-.642-2.912-1.358-4.628"/><path d="M52.977 139.63c-15.717-8.58-28.3-17.637-39.062-31.321-5.914-7.521-9.86-17.025-12.149-26.359-4.926-20.132.54-43.483 15.284-58.532 1.912-1.955 3.732-4.258 5.602-5.943 3.39-3.057 7.158-6.007 11.281-8.005 1.18-.573 2.355-1.156 3.526-1.748C55.733-1.515 74.474-2.465 93.68 4.872c1.796.686 4.777 2.155 8.943 4.407 7.23 3.91 13.101 9.397 18.568 15.312 2.473 2.672 4.08 5.8 6.049 8.914 7.668 12.15 10.888 25.122 9.66 38.912-.61 6.915-2.41 13.929-5.395 21.042-2.061 4.92-5.26 9.853-8.168 14.637-.985 1.611-2.594 3.552-4.826 5.822-5.14 5.21-10.095 10.172-16.13 14.26-5.744 3.888-13.037 8.516-19.96 12.283-4.351 2.365-8.522 4.152-12.512 5.36-1.024.308-2.235.218-3.633-.27a89.953 89.953 0 0 1-13.3-5.921ZM14.136 54.056c-2.37 8.483-2.526 16.895-.47 25.235 3.647 14.808 13.272 26.501 24.305 35.352 8.14 6.54 16.925 12.369 26.65 16.37.028.01.585.278 1.67.804 2.794 1.35 4.422.157 7.706-1.365a110.395 110.395 0 0 0 17.772-10.328c2.424-1.735 5.16-4.11 7.798-6.107 2.303-1.749 4.168-3.365 5.595-4.848 7.058-7.329 13.001-15.07 16.463-24.375 3.263-8.772 3.292-18.888 2.005-28.03-.19-1.37-.642-2.912-1.358-4.628-.772-4.412-2.552-8.546-5.338-12.404-3.548-4.912-7.287-9.853-12.043-13.535C82.414 8.802 55.422 7.78 32.568 25.685c-7.87 6.163-15.113 15.39-17.6 25.193a192.706 192.706 0 0 1-.832 3.178Z" fill="#7E22CE" fill-rule="nonzero"/><path d="M33.073 79.178c-7.358-5.31-15.092-15.056-12.511-24.369 1.244-4.457 5.7-6.525 10.186-6.852 6.064-.434 11.559 1.734 16.507 5.104 8.075 5.509 14.7 17.11 15.376 26.75.113 1.672-.126 2.968-.718 3.888-3.327 5.154-16.037 1.585-20.665-.15a34.556 34.556 0 0 1-8.175-4.371Zm6.675-19.513a5.026 5.026 0 1 0-10.052 0 5.026 5.026 0 0 0 10.052 0Zm35.358 23.721c-2.466-5.26 2.595-16.087 5.467-20.643 5.772-9.178 16.94-17.146 28.257-14.353 9.824 2.424 9.049 13.84 4.698 20.41-1.599 2.423-4.407 6.226-7.03 8.402-7.763 6.435-16.637 9.447-26.622 9.035-2.331-.095-3.921-1.045-4.77-2.85Zm29.33-22.25a7.166 7.166 0 1 0-14.33 0 7.166 7.166 0 0 0 14.33 0Z" fill="#7E22CE" fill-rule="nonzero"/><ellipse fill="#7E22CE" fill-rule="nonzero" transform="rotate(90.4 64.259 95.115)" cx="64.259" cy="95.115" rx="2.843" ry="2.41"/><ellipse fill="#7E22CE" fill-rule="nonzero" transform="rotate(88.2 72.54 95.073)" cx="72.54" cy="95.073" rx="2.851" ry="2.545"/><path d="M62.012 111.622c-2.388-.853-9.646-4.386-9.824-7.273-.135-2.274 2.182-3.412 4.116-1.954 8.274 6.22 15.54 7.03 23.87.327 2.986-2.403 6.256 1.144 3.193 3.753-6.313 5.374-13.23 8.033-21.355 5.147Z" fill="#7E22CE" fill-rule="nonzero"/></g></svg>